# xmcd
#
# Track frame offsets: 
#        150
#        20532
#        45733
#        67664
#        83456
#        102154
#        128939
#        137166
#        158027
#        173330
#        195472
#        209689
#        227764
#
# Disc length: 3369 seconds
#
# Revision: 0
# Processed by: cddbd v1.5.2PL0 Copyright (c) Steve Scherf et al.
# Submitted via: ExactAudioCopy v0.99pb5
#
DISCID=a00d270d
DTITLE=Catfish Hodge - Different Strokes: The Complete East and Westboun
DTITLE=d Recordings Disc Two
DYEAR=2014
DGENRE=Blues
TTITLE0=What Those Wimmin Do
TTITLE1=Big Boss Man
TTITLE2=We Got Love In Our House
TTITLE3=Keep Driving Me Crazy
TTITLE4=Silver Arrow
TTITLE5=An't It A Shame
TTITLE6=Bulldog
TTITLE7=Oscar Teo
TTITLE8=Des Woman
TTITLE9=It's All Over Now
TTITLE10=Sweet Cocaine
TTITLE11=Take A Look In The Mirror
TTITLE12=For Free
EXTD=
EXTT0=
EXTT1=
EXTT2=
EXTT3=
EXTT4=
EXTT5=
EXTT6=
EXTT7=
EXTT8=
EXTT9=
EXTT10=
EXTT11=
EXTT12=
PLAYORDER=
